REM DIRINDEX 1\2,1\3,1\4
REM DIRNAME folder01,folder02,folder03,folder04
TITLE ""
FILE "Disk2Track54.mp3" MP3
  TRACK 01 AUDIO
    TITLE "4:cjc032_1005"
    INDEX 01 00:00:00
  TRACK 02 AUDIO
    TITLE "4:cjc032_1006"
    INDEX 01 00:06:00
  TRACK 03 AUDIO
    TITLE "4:cjc032_1007"
    INDEX 01 00:17:06
  TRACK 04 AUDIO
    TITLE "4:cjc032_1008"
    INDEX 01 00:31:06
  TRACK 05 AUDIO
    TITLE "0:"
    INDEX 01 00:49:00
